<svg width="512" height="512" viewBox="0 0 512 512" fill="none" xmlns="http://www.w3.org/2000/svg">
<g clip-path="url(#clip0_658_2)">
<path d="M0 256C0 397.385 114.615 512 256 512C397.385 512 512 397.385 512 256C512 114.615 397.385 0 256 0C114.615 0 0 114.615 0 256Z" fill="black"/>
<rect x="175" y="197" width="9" height="209" fill="#CEAFE8"/>
<path d="M139.027 125.584V388.346" stroke="black"/>
<path d="M181.375 148.77V411.532" stroke="black"/>
<path d="M416.522 232.01V279.346L181.292 411.773L138.223 388.91L416.522 232.01Z" fill="#CEAFE8"/>
<path d="M416.522 232.01V279.346L181.292 411.773L138.223 388.91L416.522 232.01Z" fill="#CEAFE8"/>
<path d="M333.283 280.231V232.895L139.109 122.525V169.62L333.283 280.231Z" fill="#7DA3FC"/>
<path d="M333.283 280.231V232.895L139.109 122.525V169.62L333.283 280.231Z" fill="#7DA3FC"/>
<path d="M374.501 208.504V255.84L139.109 388.992V342.381L374.501 208.504Z" fill="#9AD5CA"/>
<path d="M374.501 208.504V255.84L139.109 388.992V342.381L374.501 208.504Z" fill="#9AD5CA"/>
<path d="M374.499 255.838L416.522 232.814L180.245 99.6621L138.223 123.25L374.499 255.838Z" fill="#9AD5CA"/>
<path d="M374.499 255.838L416.522 232.814L180.245 99.6621L138.223 123.25L374.499 255.838Z" fill="#9AD5CA"/>
<path d="M182 147.212V412L138 390.622V123L182 147.212Z" fill="#7DA3FC"/>
<path d="M221.574 216.507V388.703L181 411.486V193L221.574 216.507Z" fill="#CEAFE8"/>
</g>
<defs>
<clipPath id="clip0_658_2">
<rect width="512" height="512" fill="white"/>
</clipPath>
</defs>
</svg>
